
<?xml version="1.0" encoding="UTF-8"?>
<svg fill="none" viewBox="0 0 24 24" xmlns="http://www.w3.org/2000/svg">
<path d="m14.45 4.555c0.8145-0.24272 1.4136-0.07069 1.6505 0.24512 0.3013 0.40175 0.3765 0.77298 0.3336 1.1142-0.0448 0.35664-0.2252 0.72574-0.5125 1.0872-0.5814 0.73136-1.5018 1.3074-2.0967 1.5305-0.2264 0.08488-0.3596 0.31952-0.3164 0.55738 0.0431 0.23785 0.2502 0.41078 0.4919 0.41078h5.5v3h-1.5c-0.2762 0-0.5 0.2239-0.5 0.5v7.5h-11v-6c0-0.2761-0.22386-0.5-0.5-0.5s-0.5 0.2239-0.5 0.5v6.5c0 0.2762 0.22386 0.5 0.5 0.5h12c0.2761 0 0.5-0.2238 0.5-0.5v-7.5h1.5c0.2761 0 0.5-0.2238 0.5-0.5v-4c0-0.13261-0.0527-0.25979-0.1465-0.35356-0.0937-0.09376-0.2209-0.14644-0.3535-0.14644h-4.1797c0.3205-0.25767 0.6263-0.5526 0.8837-0.87637 0.3586-0.45108 0.6469-0.98824 0.7219-1.5847 0.0769-0.61192-0.0771-1.2407-0.5259-1.8389-0.6117-0.81553-1.7626-0.89351-2.736-0.60343-0.7833 0.23345-1.5797 0.7313-2.1631 1.4735-0.5723-0.73032-1.3422-1.2055-2.1135-1.4259-0.97345-0.27811-2.0649-0.17382-2.7409 0.50218-0.4888 0.48878-0.73398 1.0359-0.73286 1.6128 0.0011 0.56219 0.23605 1.0809 0.56452 1.5296 0.32259 0.44063 0.76091 0.84886 1.2464 1.2112h-4.2245c-0.13261 0-0.25979 0.05268-0.35356 0.14644-0.09376 0.09377-0.14644 0.22095-0.14644 0.35356v4c0 0.2762 0.22386 0.5 0.5 0.5h11.5c0.2761 0 0.5-0.2238 0.5-0.5 0-0.2761-0.2239-0.5-0.5-0.5h-11v-3h5.5001c0.23185 0 0.43335-0.15944 0.48665-0.38512 0.0532-0.22569-0.0556-0.45839-0.263-0.56209-0.97154-0.48575-1.9264-1.1548-2.4387-1.8547-0.25271-0.34519-0.37085-0.66089-0.3714-0.94081-5.2e-4 -0.26521 0.10411-0.5679 0.43995-0.90372 0.32396-0.32394 0.98255-0.46965 1.7591-0.24778 0.75314 0.21516 1.5086 0.75465 1.9402 1.6178 0.0847 0.16939 0.2578 0.27638 0.4472 0.27638s0.3625-0.107 0.4472-0.27639c0.4311-0.86217 1.2248-1.4369 2.0023-1.6686z" clip-rule="evenodd" fill="#000" fill-rule="evenodd"/>
</svg>
