<?xml version="1.0" encoding="UTF-8" standalone="no"?>
<!-- Created with Inkscape (http://www.inkscape.org/) -->

<svg
   xmlns:dc="http://purl.org/dc/elements/1.1/"
   xmlns:cc="http://creativecommons.org/ns#"
   xmlns:rdf="http://www.w3.org/1999/02/22-rdf-syntax-ns#"
   xmlns:svg="http://www.w3.org/2000/svg"
   xmlns="http://www.w3.org/2000/svg"
   xmlns:sodipodi="http://sodipodi.sourceforge.net/DTD/sodipodi-0.dtd"
   xmlns:inkscape="http://www.inkscape.org/namespaces/inkscape"
   width="48pt"
   height="48pt"
   viewBox="0 0 16.933334 16.933333"
   version="1.1"
   id="svg979"
   inkscape:version="0.92.4 (5da689c313, 2019-01-14)"
   sodipodi:docname="3 - Television.svg"
   inkscape:export-filename="E:\TR Design Studio Creative\Project Design\TR Creative Design\Icon Design\Project Hiring\Icon Icons\004 - Cinema\Send\03 - Flat\3 - Television.png"
   inkscape:export-xdpi="768"
   inkscape:export-ydpi="768">
  <defs
     id="defs973" />
  <sodipodi:namedview
     id="base"
     pagecolor="#ffffff"
     bordercolor="#666666"
     borderopacity="1.0"
     inkscape:pageopacity="0.0"
     inkscape:pageshadow="2"
     inkscape:zoom="8.078125"
     inkscape:cx="32"
     inkscape:cy="32"
     inkscape:document-units="pt"
     inkscape:current-layer="layer1"
     showgrid="false"
     units="pt"
     inkscape:window-width="1366"
     inkscape:window-height="716"
     inkscape:window-x="-8"
     inkscape:window-y="-8"
     inkscape:window-maximized="1"
     inkscape:snap-bbox="true"
     inkscape:bbox-nodes="true"
     inkscape:snap-nodes="false"
     showguides="false">
    <inkscape:grid
       type="xygrid"
       id="grid1526" />
    <sodipodi:guide
       position="0.97013909,15.963209"
       orientation="56.666615,0"
       id="guide1528"
       inkscape:locked="false" />
    <sodipodi:guide
       position="0.97013909,0.97016731"
       orientation="0,56.666667"
       id="guide1530"
       inkscape:locked="false" />
    <sodipodi:guide
       position="15.963195,0.97016731"
       orientation="-56.666615,0"
       id="guide1532"
       inkscape:locked="false" />
    <sodipodi:guide
       position="15.963195,15.963209"
       orientation="0,-56.666667"
       id="guide1534"
       inkscape:locked="false" />
  </sodipodi:namedview>
  <metadata
     id="metadata976">
    <rdf:RDF>
      <cc:Work
         rdf:about="">
        <dc:format>image/svg+xml</dc:format>
        <dc:type
           rdf:resource="http://purl.org/dc/dcmitype/StillImage" />
        <dc:title />
      </cc:Work>
    </rdf:RDF>
  </metadata>
  <g
     inkscape:label="Layer 1"
     inkscape:groupmode="layer"
     id="layer1"
     transform="translate(0,-280.06668)">
    <g
       id="g1828"
       transform="matrix(1.2045093,0,0,1.2045093,0.81838207,-35.043161)"
       style="stroke-width:0.83021361">
      <path
         style="color:#000000;font-style:normal;font-variant:normal;font-weight:normal;font-stretch:normal;font-size:medium;line-height:normal;font-family:sans-serif;font-variant-ligatures:normal;font-variant-position:normal;font-variant-caps:normal;font-variant-numeric:normal;font-variant-alternates:normal;font-feature-settings:normal;text-indent:0;text-align:start;text-decoration:none;text-decoration-line:none;text-decoration-style:solid;text-decoration-color:#000000;letter-spacing:normal;word-spacing:normal;text-transform:none;writing-mode:lr-tb;direction:ltr;text-orientation:mixed;dominant-baseline:auto;baseline-shift:baseline;text-anchor:start;white-space:normal;shape-padding:0;clip-rule:nonzero;display:inline;overflow:visible;visibility:visible;isolation:auto;mix-blend-mode:normal;color-interpolation:sRGB;color-interpolation-filters:linearRGB;solid-color:#000000;solid-opacity:1;vector-effect:none;fill:#3e3e3e;fill-opacity:1;fill-rule:nonzero;stroke:none;stroke-width:0.43932164;stroke-linecap:round;stroke-linejoin:round;stroke-miterlimit:4;stroke-dasharray:none;stroke-dashoffset:0;stroke-opacity:1;color-rendering:auto;image-rendering:auto;shape-rendering:auto;text-rendering:auto;enable-background:accumulate"
         d="m 5.65625,271.56055 a 0.26460996,0.26460996 0 0 0 -0.2363281,0.14648 l -0.8320313,1.66211 a 0.26460996,0.26460996 0 0 0 0.2382813,0.38281 H 7.875 a 0.26460996,0.26460996 0 0 0 0.2363281,-0.38281 l -0.8320312,-1.66211 a 0.26460996,0.26460996 0 0 0 -0.2363281,-0.14648 z"
         id="path1757"
         inkscape:connector-curvature="0" />
      <path
         style="color:#000000;font-style:normal;font-variant:normal;font-weight:normal;font-stretch:normal;font-size:medium;line-height:normal;font-family:sans-serif;font-variant-ligatures:normal;font-variant-position:normal;font-variant-caps:normal;font-variant-numeric:normal;font-variant-alternates:normal;font-feature-settings:normal;text-indent:0;text-align:start;text-decoration:none;text-decoration-line:none;text-decoration-style:solid;text-decoration-color:#000000;letter-spacing:normal;word-spacing:normal;text-transform:none;writing-mode:lr-tb;direction:ltr;text-orientation:mixed;dominant-baseline:auto;baseline-shift:baseline;text-anchor:start;white-space:normal;shape-padding:0;clip-rule:nonzero;display:inline;overflow:visible;visibility:visible;isolation:auto;mix-blend-mode:normal;color-interpolation:sRGB;color-interpolation-filters:linearRGB;solid-color:#000000;solid-opacity:1;vector-effect:none;fill:#3e3e3e;fill-opacity:1;fill-rule:nonzero;stroke:none;stroke-width:0.4393208;stroke-linecap:round;stroke-linejoin:round;stroke-miterlimit:4;stroke-dasharray:none;stroke-dashoffset:0;stroke-opacity:1;color-rendering:auto;image-rendering:auto;shape-rendering:auto;text-rendering:auto;enable-background:accumulate"
         d="m 6.3496094,263.52148 c -0.7673813,5.8e-4 -1.4166887,0.58112 -1.5019532,1.34375 a 0.26460945,0.26460945 0 0 0 0.2636719,0.29493 h 2.4765625 a 0.26460945,0.26460945 0 0 0 0.2636719,-0.29493 c -0.085237,-0.76238 -0.7348193,-1.34284 -1.5019531,-1.34375 z"
         id="path1723"
         inkscape:connector-curvature="0" />
      <path
         style="color:#000000;font-style:normal;font-variant:normal;font-weight:normal;font-stretch:normal;font-size:medium;line-height:normal;font-family:sans-serif;font-variant-ligatures:normal;font-variant-position:normal;font-variant-caps:normal;font-variant-numeric:normal;font-variant-alternates:normal;font-feature-settings:normal;text-indent:0;text-align:start;text-decoration:none;text-decoration-line:none;text-decoration-style:solid;text-decoration-color:#000000;letter-spacing:normal;word-spacing:normal;text-transform:none;writing-mode:lr-tb;direction:ltr;text-orientation:mixed;dominant-baseline:auto;baseline-shift:baseline;text-anchor:start;white-space:normal;shape-padding:0;clip-rule:nonzero;display:inline;overflow:visible;visibility:visible;isolation:auto;mix-blend-mode:normal;color-interpolation:sRGB;color-interpolation-filters:linearRGB;solid-color:#000000;solid-opacity:1;vector-effect:none;fill:#e6e6e6;fill-opacity:1;fill-rule:nonzero;stroke:none;stroke-width:0.43932164;stroke-linecap:round;stroke-linejoin:round;stroke-miterlimit:4;stroke-dasharray:none;stroke-dashoffset:0;stroke-opacity:1;color-rendering:auto;image-rendering:auto;shape-rendering:auto;text-rendering:auto;enable-background:accumulate"
         d="m 1.0839844,264.63086 c -0.44916196,0 -0.82031412,0.3692 -0.82031252,0.81836 v 5.82226 c -1.17e-6,0.44917 0.37115084,0.81836 0.82031252,0.81836 H 11.617188 c 0.449161,0 0.81836,-0.36919 0.818359,-0.81836 v -5.82226 c 1e-6,-0.44916 -0.369198,-0.81836 -0.818359,-0.81836 z"
         id="path1695"
         inkscape:connector-curvature="0" />
      <path
         style="color:#000000;font-style:normal;font-variant:normal;font-weight:normal;font-stretch:normal;font-size:medium;line-height:normal;font-family:sans-serif;font-variant-ligatures:normal;font-variant-position:normal;font-variant-caps:normal;font-variant-numeric:normal;font-variant-alternates:normal;font-feature-settings:normal;text-indent:0;text-align:start;text-decoration:none;text-decoration-line:none;text-decoration-style:solid;text-decoration-color:#000000;letter-spacing:normal;word-spacing:normal;text-transform:none;writing-mode:lr-tb;direction:ltr;text-orientation:mixed;dominant-baseline:auto;baseline-shift:baseline;text-anchor:start;white-space:normal;shape-padding:0;clip-rule:nonzero;display:inline;overflow:visible;visibility:visible;isolation:auto;mix-blend-mode:normal;color-interpolation:sRGB;color-interpolation-filters:linearRGB;solid-color:#000000;solid-opacity:1;vector-effect:none;fill:#5db2f6;fill-opacity:1;fill-rule:nonzero;stroke:none;stroke-width:0.43932164;stroke-linecap:round;stroke-linejoin:round;stroke-miterlimit:4;stroke-dasharray:none;stroke-dashoffset:0;stroke-opacity:1;color-rendering:auto;image-rendering:auto;shape-rendering:auto;text-rendering:auto;enable-background:accumulate"
         d="m 2.1914062,265.74023 c -0.4491619,0 -0.8183582,0.3692 -0.8183593,0.81836 v 3.60352 c 9.7e-6,0.44916 0.3692034,0.81836 0.8183593,0.81836 h 8.3164058 c 0.449156,0 0.81835,-0.36921 0.81836,-0.81836 v -3.60352 c -2e-6,-0.44916 -0.369199,-0.81835 -0.81836,-0.81836 z"
         id="path1709"
         inkscape:connector-curvature="0" />
      <path
         style="color:#000000;font-style:normal;font-variant:normal;font-weight:normal;font-stretch:normal;font-size:medium;line-height:normal;font-family:sans-serif;font-variant-ligatures:normal;font-variant-position:normal;font-variant-caps:normal;font-variant-numeric:normal;font-variant-alternates:normal;font-feature-settings:normal;text-indent:0;text-align:start;text-decoration:none;text-decoration-line:none;text-decoration-style:solid;text-decoration-color:#000000;letter-spacing:normal;word-spacing:normal;text-transform:none;writing-mode:lr-tb;direction:ltr;text-orientation:mixed;dominant-baseline:auto;baseline-shift:baseline;text-anchor:start;white-space:normal;shape-padding:0;clip-rule:nonzero;display:inline;overflow:visible;visibility:visible;isolation:auto;mix-blend-mode:normal;color-interpolation:sRGB;color-interpolation-filters:linearRGB;solid-color:#000000;solid-opacity:1;vector-effect:none;fill:#e6e6e6;fill-opacity:1;fill-rule:nonzero;stroke:none;stroke-width:0.43932164;stroke-linecap:round;stroke-linejoin:round;stroke-miterlimit:4;stroke-dasharray:none;stroke-dashoffset:0;stroke-opacity:1;color-rendering:auto;image-rendering:auto;shape-rendering:auto;text-rendering:auto;enable-background:accumulate"
         d="m 6.3496094,273.22461 c -0.7421942,0 -1.4129464,0.0621 -1.9160156,0.16797 -0.2515347,0.053 -0.4592805,0.11381 -0.6269532,0.19726 -0.083836,0.0417 -0.1601327,0.0879 -0.2265625,0.15625 -0.06643,0.0684 -0.1269478,0.17371 -0.1269531,0.29688 -5.2e-6,0.12317 0.060524,0.22657 0.1269531,0.29492 0.066429,0.0684 0.1427268,0.11647 0.2265625,0.1582 0.1676715,0.0835 0.3754178,0.14431 0.6269532,0.19727 0.5030707,0.10591 1.1738117,0.16797 1.9160156,0.16797 0.7422039,0 1.4129448,-0.0621 1.9160156,-0.16797 0.2515354,-0.053 0.4612348,-0.11381 0.6289062,-0.19727 0.083836,-0.0417 0.1581807,-0.0898 0.2246094,-0.1582 0.066429,-0.0684 0.1289115,-0.17175 0.1289063,-0.29492 -5.3e-6,-0.12317 -0.062477,-0.22853 -0.1289063,-0.29688 -0.06643,-0.0683 -0.140773,-0.11452 -0.2246094,-0.15625 -0.1676726,-0.0834 -0.3773716,-0.14431 -0.6289062,-0.19726 -0.5030692,-0.10591 -1.1738215,-0.16797 -1.9160156,-0.16797 z"
         id="path1779"
         inkscape:connector-curvature="0" />
      <path
         style="color:#000000;font-style:normal;font-variant:normal;font-weight:normal;font-stretch:normal;font-size:medium;line-height:normal;font-family:sans-serif;font-variant-ligatures:normal;font-variant-position:normal;font-variant-caps:normal;font-variant-numeric:normal;font-variant-alternates:normal;font-feature-settings:normal;text-indent:0;text-align:start;text-decoration:none;text-decoration-line:none;text-decoration-style:solid;text-decoration-color:#000000;letter-spacing:normal;word-spacing:normal;text-transform:none;writing-mode:lr-tb;direction:ltr;text-orientation:mixed;dominant-baseline:auto;baseline-shift:baseline;text-anchor:start;white-space:normal;shape-padding:0;clip-rule:nonzero;display:inline;overflow:visible;visibility:visible;opacity:1;isolation:auto;mix-blend-mode:normal;color-interpolation:sRGB;color-interpolation-filters:linearRGB;solid-color:#000000;solid-opacity:1;vector-effect:none;fill:#dbdbdb;fill-opacity:1;fill-rule:nonzero;stroke:none;stroke-width:0.43932164;stroke-linecap:round;stroke-linejoin:round;stroke-miterlimit:4;stroke-dasharray:none;stroke-dashoffset:0;stroke-opacity:1;color-rendering:auto;image-rendering:auto;shape-rendering:auto;text-rendering:auto;enable-background:accumulate"
         d="m 4.125,262.41406 a 0.2645835,0.2645835 0 0 0 -0.2285156,0.14649 0.2645835,0.2645835 0 0 0 0.1171875,0.35351 l 2.21875,1.10938 A 0.2645835,0.2645835 0 0 0 6.5859375,263.9043 0.2645835,0.2645835 0 0 0 6.46875,263.55078 L 4.25,262.44141 a 0.2645835,0.2645835 0 0 0 -0.125,-0.0274 z"
         id="path1735"
         inkscape:connector-curvature="0" />
      <path
         style="color:#000000;font-style:normal;font-variant:normal;font-weight:normal;font-stretch:normal;font-size:medium;line-height:normal;font-family:sans-serif;font-variant-ligatures:normal;font-variant-position:normal;font-variant-caps:normal;font-variant-numeric:normal;font-variant-alternates:normal;font-feature-settings:normal;text-indent:0;text-align:start;text-decoration:none;text-decoration-line:none;text-decoration-style:solid;text-decoration-color:#000000;letter-spacing:normal;word-spacing:normal;text-transform:none;writing-mode:lr-tb;direction:ltr;text-orientation:mixed;dominant-baseline:auto;baseline-shift:baseline;text-anchor:start;white-space:normal;shape-padding:0;clip-rule:nonzero;display:inline;overflow:visible;visibility:visible;opacity:1;isolation:auto;mix-blend-mode:normal;color-interpolation:sRGB;color-interpolation-filters:linearRGB;solid-color:#000000;solid-opacity:1;vector-effect:none;fill:#dbdbdb;fill-opacity:1;fill-rule:nonzero;stroke:none;stroke-width:0.43932164;stroke-linecap:round;stroke-linejoin:round;stroke-miterlimit:4;stroke-dasharray:none;stroke-dashoffset:0;stroke-opacity:1;color-rendering:auto;image-rendering:auto;shape-rendering:auto;text-rendering:auto;enable-background:accumulate"
         d="m 8.5585938,262.41406 a 0.2645835,0.2645835 0 0 0 -0.109375,0.0274 l -2.2167969,1.10937 a 0.2645835,0.2645835 0 0 0 -0.1191407,0.35352 0.2645835,0.2645835 0 0 0 0.3554688,0.11914 l 2.2167969,-1.10938 a 0.2645835,0.2645835 0 0 0 0.1191406,-0.35351 0.2645835,0.2645835 0 0 0 -0.2460937,-0.14649 z"
         id="path1739"
         inkscape:connector-curvature="0" />
      <path
         id="path1805"
         style="fill:#459de3;fill-opacity:1;stroke:none;stroke-width:1.66042721;stroke-linecap:round;stroke-linejoin:round;stroke-opacity:1"
         d="m 8.2832031,-70.146484 c -1.6976198,0 -3.0937458,1.394184 -3.09375,3.091796 v 1.552735 c 9.6773949,-0.575083 17.7591759,10.398891 26.7871089,15.160156 h 7.738282 c 1.697597,0 3.091759,-1.394222 3.091797,-3.091797 v -13.621094 c -8e-6,-1.697612 -1.394181,-3.091759 -3.091797,-3.091796 z"
         transform="matrix(0.26458333,0,0,0.26458333,0,284.3)"
         inkscape:connector-curvature="0" />
      <path
         id="path1745"
         d="m 6.4667969,267.125 a 0.2645835,0.2645835 0 0 0 -0.1425781,0.0547 l -2.4941407,1.93945 a 0.2645835,0.2645835 0 0 0 -0.046875,0.37109 0.2645835,0.2645835 0 0 0 0.3710938,0.0469 l 2.4941406,-1.93945 a 0.2645835,0.2645835 0 0 0 0.046875,-0.3711 0.2645835,0.2645835 0 0 0 -0.2285156,-0.10156 z"
         style="color:#000000;font-style:normal;font-variant:normal;font-weight:normal;font-stretch:normal;font-size:medium;line-height:normal;font-family:sans-serif;font-variant-ligatures:normal;font-variant-position:normal;font-variant-caps:normal;font-variant-numeric:normal;font-variant-alternates:normal;font-feature-settings:normal;text-indent:0;text-align:start;text-decoration:none;text-decoration-line:none;text-decoration-style:solid;text-decoration-color:#000000;letter-spacing:normal;word-spacing:normal;text-transform:none;writing-mode:lr-tb;direction:ltr;text-orientation:mixed;dominant-baseline:auto;baseline-shift:baseline;text-anchor:start;white-space:normal;shape-padding:0;clip-rule:nonzero;display:inline;overflow:visible;visibility:visible;isolation:auto;mix-blend-mode:normal;color-interpolation:sRGB;color-interpolation-filters:linearRGB;solid-color:#000000;solid-opacity:1;vector-effect:none;fill:#3e3e3e;fill-opacity:1;fill-rule:nonzero;stroke:none;stroke-width:0.43932164;stroke-linecap:round;stroke-linejoin:round;stroke-miterlimit:4;stroke-dasharray:none;stroke-dashoffset:0;stroke-opacity:1;color-rendering:auto;image-rendering:auto;shape-rendering:auto;text-rendering:auto;enable-background:accumulate"
         inkscape:connector-curvature="0" />
      <path
         style="color:#000000;font-style:normal;font-variant:normal;font-weight:normal;font-stretch:normal;font-size:medium;line-height:normal;font-family:sans-serif;font-variant-ligatures:normal;font-variant-position:normal;font-variant-caps:normal;font-variant-numeric:normal;font-variant-alternates:normal;font-feature-settings:normal;text-indent:0;text-align:start;text-decoration:none;text-decoration-line:none;text-decoration-style:solid;text-decoration-color:#000000;letter-spacing:normal;word-spacing:normal;text-transform:none;writing-mode:lr-tb;direction:ltr;text-orientation:mixed;dominant-baseline:auto;baseline-shift:baseline;text-anchor:start;white-space:normal;shape-padding:0;clip-rule:nonzero;display:inline;overflow:visible;visibility:visible;opacity:1;isolation:auto;mix-blend-mode:normal;color-interpolation:sRGB;color-interpolation-filters:linearRGB;solid-color:#000000;solid-opacity:1;vector-effect:none;fill:#3e3e3e;fill-opacity:1;fill-rule:nonzero;stroke:none;stroke-width:0.43932164;stroke-linecap:round;stroke-linejoin:round;stroke-miterlimit:4;stroke-dasharray:none;stroke-dashoffset:0;stroke-opacity:1;color-rendering:auto;image-rendering:auto;shape-rendering:auto;text-rendering:auto;enable-background:accumulate"
         d="m 8.6855469,267.125 a 0.2645835,0.2645835 0 0 0 -0.1445313,0.0547 L 6.046875,269.11914 A 0.2645835,0.2645835 0 0 0 6,269.49023 a 0.2645835,0.2645835 0 0 0 0.3710938,0.0469 l 2.4941406,-1.93945 a 0.2645835,0.2645835 0 0 0 0.046875,-0.3711 0.2645835,0.2645835 0 0 0 -0.2265625,-0.10156 z"
         id="path1749"
         inkscape:connector-curvature="0" />
      <path
         id="path1789"
         style="color:#000000;font-style:normal;font-variant:normal;font-weight:normal;font-stretch:normal;font-size:medium;line-height:normal;font-family:sans-serif;font-variant-ligatures:normal;font-variant-position:normal;font-variant-caps:normal;font-variant-numeric:normal;font-variant-alternates:normal;font-feature-settings:normal;text-indent:0;text-align:start;text-decoration:none;text-decoration-line:none;text-decoration-style:solid;text-decoration-color:#000000;letter-spacing:normal;word-spacing:normal;text-transform:none;writing-mode:lr-tb;direction:ltr;text-orientation:mixed;dominant-baseline:auto;baseline-shift:baseline;text-anchor:start;white-space:normal;shape-padding:0;clip-rule:nonzero;display:inline;overflow:visible;visibility:visible;isolation:auto;mix-blend-mode:normal;color-interpolation:sRGB;color-interpolation-filters:linearRGB;solid-color:#000000;solid-opacity:1;vector-effect:none;fill:#d4d4d4;fill-opacity:1;fill-rule:nonzero;stroke:none;stroke-width:0.43932164;stroke-linecap:round;stroke-linejoin:round;stroke-miterlimit:4;stroke-dasharray:none;stroke-dashoffset:0;stroke-opacity:1;color-rendering:auto;image-rendering:auto;shape-rendering:auto;text-rendering:auto;enable-background:accumulate"
         d="m 1.0839809,264.63086 c -0.36305701,0 -0.67141724,0.24289 -0.77773026,0.57258 0.0791419,-0.0257 0.16140483,-0.0434 0.24856361,-0.0434 H 11.088021 c 0.449161,0 0.818556,0.36939 0.818555,0.81855 v 5.82239 c 0,0.0864 -0.01712,0.16808 -0.04237,0.24649 0.329162,-0.10613 0.571542,-0.41297 0.571542,-0.77566 v -5.82239 c 0,-0.44915 -0.369394,-0.81855 -0.818555,-0.81855 z"
         inkscape:connector-curvature="0" />
      <path
         id="path1810"
         style="color:#000000;font-style:normal;font-variant:normal;font-weight:normal;font-stretch:normal;font-size:medium;line-height:normal;font-family:sans-serif;font-variant-ligatures:normal;font-variant-position:normal;font-variant-caps:normal;font-variant-numeric:normal;font-variant-alternates:normal;font-feature-settings:normal;text-indent:0;text-align:start;text-decoration:none;text-decoration-line:none;text-decoration-style:solid;text-decoration-color:#000000;letter-spacing:normal;word-spacing:normal;text-transform:none;writing-mode:lr-tb;direction:ltr;text-orientation:mixed;dominant-baseline:auto;baseline-shift:baseline;text-anchor:start;white-space:normal;shape-padding:0;clip-rule:nonzero;display:inline;overflow:visible;visibility:visible;isolation:auto;mix-blend-mode:normal;color-interpolation:sRGB;color-interpolation-filters:linearRGB;solid-color:#000000;solid-opacity:1;vector-effect:none;fill:#d4d4d4;fill-opacity:1;fill-rule:nonzero;stroke:none;stroke-width:0.43932164;stroke-linecap:round;stroke-linejoin:round;stroke-miterlimit:4;stroke-dasharray:none;stroke-dashoffset:0;stroke-opacity:1;color-rendering:auto;image-rendering:auto;shape-rendering:auto;text-rendering:auto;enable-background:accumulate"
         d="m 6.3494704,273.22506 c -0.7421943,0 -1.4125762,0.0621 -1.9156452,0.16795 -0.2515349,0.053 -0.4596794,0.11395 -0.6273519,0.1974 -0.083836,0.0417 -0.1599132,0.0877 -0.2263429,0.15606 -0.06643,0.0684 -0.1271188,0.17397 -0.1271241,0.29714 0,0.003 9.79e-4,0.005 0.00103,0.007 0.1326674,-0.0486 0.2778286,-0.0923 0.4506188,-0.12868 0.5030689,-0.10587 1.1734508,-0.16795 1.9156452,-0.16795 0.742194,0 1.4130928,0.062 1.916162,0.16795 0.2515346,0.053 0.4612296,0.114 0.6289022,0.19741 0.083836,0.0417 0.1583625,0.0878 0.2247925,0.15606 0.064979,0.0669 0.1249949,0.16967 0.1276408,0.28939 0.060504,-0.0221 0.124409,-0.0427 0.1767334,-0.0687 0.083836,-0.0417 0.1583637,-0.0897 0.2247924,-0.15813 0.066429,-0.0684 0.1286796,-0.17139 0.1286744,-0.29456 -5.3e-6,-0.12317 -0.062245,-0.22879 -0.1286744,-0.29714 -0.06643,-0.0683 -0.140956,-0.11433 -0.2247924,-0.15606 -0.1676726,-0.0834 -0.3773676,-0.14446 -0.6289022,-0.19741 -0.5030692,-0.10591 -1.173968,-0.16794 -1.9161621,-0.16794 z"
         inkscape:connector-curvature="0" />
    </g>
  </g>
</svg>
