<?xml version="1.0" encoding="iso-8859-1"?>
<!-- Generator: Adobe Illustrator 21.0.0, SVG Export Plug-In . SVG Version: 6.00 Build 0)  -->
<svg version="1.1" id="Layer_1" xmlns="http://www.w3.org/2000/svg" xmlns:xlink="http://www.w3.org/1999/xlink" x="0px" y="0px"
	 viewBox="0 0 24 24" enable-background="new 0 0 24 24" xml:space="preserve">
<g>
	<path fill="#303C42" d="M18.0871582,3.552002C18.3284302,4.385376,19.0897217,5,20,5c1.1030273,0,2-0.8969727,2-2s-0.8969727-2-2-2
		c-0.5184937,0-0.9869995,0.203186-1.3426514,0.527771C17.7819824,1.0604858,15.4702148,0,12.5,0
		C8.8510742,0,5.8881226,3.6182861,5.1758423,5.1205444C4.4319458,5.3594971,3.8266602,5.9387817,3.5693359,6.7099609
		L3.4648438,7.0253906C3.3100586,7.4882812,3.3852539,7.980957,3.6704102,8.3769531
		c0.0765381,0.1062622,0.1660767,0.197998,0.2632446,0.2788086C3.1231689,9.322876,2,10.5133667,2,12
		c0,1.5078125,0.5107422,2.2875977,0.8901367,2.6591797c-0.2685547,0.7119141-0.6870117,2.2509766,0.2563477,3.1943359
		c0.7617188,0.7617188,1.5478516,1.0175781,1.9902344,1.1030273c0.4150391,1.0493164,1.9775391,4.4833984,4.8808594,4.4121094
		c-0.0166016,0.0600586-0.0219727,0.1240234-0.0141602,0.1889648C10.0322266,23.8095703,10.2460938,24,10.5,24
		c4.2338867,0,6.7348633-3.9873047,7.3183594-5.0351562c0.4331055-0.0766602,1.2470703-0.3232422,2.0351562-1.1113281
		c0.9433594-0.9433594,0.5249023-2.4824219,0.2563477-3.1943359C20.4892578,14.2875977,21,13.5078125,21,12
		c0-1.4866333-1.1231689-2.677124-1.9336548-3.3442383c0.097168-0.0808105,0.1867065-0.1725464,0.2632446-0.2788086
		c0.2851562-0.3959961,0.3603516-0.8886719,0.2060547-1.3510742l-0.1054688-0.3164062
		c-0.2474365-0.7422485-0.819458-1.3034668-1.5255737-1.5576782c-0.6551514-0.5995483-0.8330078-0.9977417-0.7766724-1.1552124
		C17.1950073,3.8076172,17.62677,3.6365356,18.0871582,3.552002z M20,2c0.5512695,0,1,0.4487305,1,1s-0.4487305,1-1,1
		s-1-0.4487305-1-1S19.4487305,2,20,2z M13.9082031,15.7890625C13.8730469,15.8383789,13.0322266,17,11.5,17
		s-2.3730469-1.1616211-2.4082031-1.2109375c-0.1591797-0.2250977-0.105957-0.5375977,0.1191406-0.6972656
		c0.2246094-0.1591797,0.534668-0.1064453,0.6953125,0.1166992C9.934082,15.246582,10.4990234,16,11.5,16
		c1.0048828,0,1.5864258-0.78125,1.5917969-0.7890625c0.159668-0.2255859,0.472168-0.277832,0.6972656-0.1191406
		C14.0141602,15.2514648,14.0673828,15.5639648,13.9082031,15.7890625z M16,14
		c-0.5458984,0-0.9882812-0.1694336-1.5478516-0.3837891C13.7353516,13.3417969,12.8427734,13,11.5,13
		s-2.2353516,0.3417969-2.9521484,0.6162109C7.9882812,13.8305664,7.5458984,14,7,14c-1.2524414,0-2-0.7475586-2-2
		c0-1.1449585,0.555542-2.4552612,0.8118896-3h11.3766479C17.4450073,9.5435791,18,10.8512573,18,12
		C18,13.2524414,17.2524414,14,16,14z M18.4814453,7.0253906l0.1054688,0.3164062
		c0.0512695,0.1542969,0.0263672,0.3183594-0.0688477,0.4506836C18.4233398,7.9243164,18.2753906,8,18.112793,8H18h-0.5h-12H5
		H4.887207C4.7246094,8,4.5766602,7.9243164,4.4819336,7.7924805C4.3867188,7.6601562,4.3618164,7.4960938,4.4135742,7.3413086
		l0.1044922-0.3154297c0.177124-0.5301514,0.6330566-0.8919067,1.1691895-0.9855347l11.7634888,0.0218506
		C17.9262695,6.1916504,18.3198853,6.5410156,18.4814453,7.0253906z"/>
	<circle fill="#303C42" cx="9" cy="11" r="1"/>
	<circle fill="#303C42" cx="14" cy="11" r="1"/>
</g>
</svg>
